
          <svg data-logo="logo" xmlns="http://www.w3.org/2000/svg" viewBox="0 0 313 43">
            <g id="logogram" transform="translate(0, 1) rotate(0)"><path d="M37.4552 2.39882C38.3804 1.43634 39.6368 0.89563 40.9453 0.89563C46.8318 0.89563 52.3794 0.895633 57.8425 0.895644C68.8303 0.895667 74.3325 14.7158 66.5629 22.7986L49.639 40.4046C48.862 41.2129 47.5335 40.6405 47.5335 39.4974V23.9906L49.4894 21.9559C51.0433 20.3393 49.9427 17.5753 47.7452 17.5753H22.8667L37.4552 2.39882Z" fill="#3A04FF"/><path d="M32.945 39.1672C32.0198 40.1296 30.7634 40.6703 29.455 40.6703C23.5684 40.6703 18.0208 40.6703 12.5577 40.6703C1.56991 40.6703 -3.93229 26.8501 3.83728 18.7674L20.7612 1.16133C21.5382 0.353051 22.8667 0.925506 22.8667 2.06858L22.8667 17.5753L20.9109 19.6101C19.3569 21.2266 20.4575 23.9907 22.6551 23.9907L47.5335 23.9906L32.945 39.1672Z" fill="#3A04FF"/></g>
            <g id="logotype" transform="translate(77, 8)"><path fill="#0f33e6" d="M8.31 1.54L13.52 1.54L13.52 27L8.31 27L8.31 1.54ZM20.87 15.94L20.87 15.94L20.87 27L15.74 27L15.74 7.89L20.58 7.89L20.66 12.66L20.35 12.66Q21.11 10.27 22.63 8.96Q24.16 7.65 26.59 7.65L26.59 7.65Q28.57 7.65 30.04 8.52Q31.51 9.38 32.33 11.00Q33.15 12.61 33.15 14.85L33.15 14.85L33.15 27L28.03 27L28.03 15.74Q28.03 13.96 27.11 12.95Q26.20 11.94 24.57 11.94L24.57 11.94Q23.50 11.94 22.65 12.41Q21.81 12.88 21.34 13.77Q20.87 14.66 20.87 15.94ZM33.41 7.89L44.74 7.89L44.74 11.81L33.41 11.81L33.41 7.89ZM36.04 21.86L36.04 3.35L41.17 3.35L41.17 21.41Q41.17 22.32 41.57 22.75Q41.97 23.19 42.91 23.19L42.91 23.19Q43.20 23.19 43.73 23.11Q44.26 23.04 44.53 22.97L44.53 22.97L45.27 26.81Q44.41 27.07 43.57 27.17Q42.72 27.27 41.95 27.27L41.95 27.27Q39.08 27.27 37.56 25.87Q36.04 24.47 36.04 21.86L36.04 21.86ZM54.43 27.38L54.43 27.38Q51.50 27.38 49.38 26.18Q47.27 24.98 46.13 22.78Q44.99 20.57 44.99 17.55L44.99 17.55Q44.99 14.59 46.12 12.37Q47.25 10.15 49.32 8.90Q51.38 7.65 54.17 7.65L54.17 7.65Q56.05 7.65 57.67 8.25Q59.30 8.85 60.53 10.06Q61.76 11.26 62.45 13.07Q63.14 14.88 63.14 17.34L63.14 17.34L63.14 18.78L47.09 18.78L47.09 15.57L60.63 15.57L58.24 16.42Q58.24 14.93 57.78 13.83Q57.33 12.73 56.43 12.12Q55.54 11.52 54.20 11.52L54.20 11.52Q52.89 11.52 51.96 12.13Q51.03 12.75 50.55 13.80Q50.07 14.85 50.07 16.20L50.07 16.20L50.07 18.47Q50.07 20.13 50.62 21.26Q51.18 22.39 52.18 22.95Q53.18 23.51 54.51 23.51L54.51 23.51Q55.42 23.51 56.15 23.26Q56.89 23.00 57.41 22.50Q57.93 21.99 58.20 21.26L58.20 21.26L62.85 22.13Q62.39 23.70 61.25 24.89Q60.10 26.08 58.38 26.73Q56.67 27.38 54.43 27.38ZM69.50 27L64.37 27L64.37 7.89L69.33 7.89L69.33 11.23L69.53 11.23Q70.06 9.45 71.30 8.54Q72.54 7.64 74.15 7.64L74.15 7.64Q74.54 7.64 74.99 7.68Q75.44 7.72 75.80 7.81L75.80 7.81L75.80 12.39Q75.46 12.27 74.81 12.20Q74.16 12.13 73.58 12.13L73.58 12.13Q72.42 12.13 71.48 12.64Q70.54 13.14 70.02 14.04Q69.50 14.93 69.50 16.13L69.50 16.13L69.50 27ZM87.56 27L81.73 27L74.69 7.89L80.14 7.89L83.36 17.81Q83.94 19.67 84.37 21.57Q84.81 23.46 85.27 25.50L85.27 25.50L84.18 25.50Q84.62 23.46 85.05 21.57Q85.47 19.67 86.06 17.81L86.06 17.81L89.23 7.89L94.62 7.89L87.56 27ZM100.19 27L95.06 27L95.06 7.89L100.19 7.89L100.19 27ZM97.62 5.40L97.62 5.40Q96.46 5.40 95.64 4.63Q94.82 3.86 94.82 2.77L94.82 2.77Q94.82 1.67 95.64 0.90Q96.46 0.13 97.62 0.13L97.62 0.13Q98.79 0.13 99.61 0.90Q100.44 1.66 100.44 2.77L100.44 2.77Q100.44 3.86 99.61 4.63Q98.79 5.40 97.62 5.40ZM110.90 27.38L110.90 27.38Q107.98 27.38 105.86 26.18Q103.74 24.98 102.60 22.78Q101.47 20.57 101.47 17.55L101.47 17.55Q101.47 14.59 102.59 12.37Q103.72 10.15 105.79 8.90Q107.86 7.65 110.64 7.65L110.64 7.65Q112.52 7.65 114.15 8.25Q115.77 8.85 117.00 10.06Q118.23 11.26 118.92 13.07Q119.62 14.88 119.62 17.34L119.62 17.34L119.62 18.78L103.57 18.78L103.57 15.57L117.10 15.57L114.71 16.42Q114.71 14.93 114.26 13.83Q113.81 12.73 112.91 12.12Q112.01 11.52 110.68 11.52L110.68 11.52Q109.36 11.52 108.43 12.13Q107.50 12.75 107.02 13.80Q106.54 14.85 106.54 16.20L106.54 16.20L106.54 18.47Q106.54 20.13 107.10 21.26Q107.65 22.39 108.65 22.95Q109.65 23.51 110.99 23.51L110.99 23.51Q111.89 23.51 112.63 23.26Q113.36 23.00 113.88 22.50Q114.40 21.99 114.68 21.26L114.68 21.26L119.33 22.13Q118.86 23.70 117.72 24.89Q116.57 26.08 114.86 26.73Q113.14 27.38 110.90 27.38ZM130.04 27L124.83 27L119.19 7.89L124.57 7.89L126.23 14.95Q126.65 16.85 127.15 19.08Q127.65 21.31 128.06 24.01L128.06 24.01L127.48 24.01Q127.92 21.38 128.45 19.14Q128.98 16.90 129.44 14.95L129.44 14.95L131.18 7.89L135.90 7.89L137.59 14.95Q138.04 16.88 138.57 19.11Q139.10 21.34 139.56 24.01L139.56 24.01L138.98 24.01Q139.39 21.36 139.86 19.13Q140.33 16.90 140.77 14.95L140.77 14.95L142.43 7.89L147.88 7.89L142.21 27L136.99 27L134.88 19.63Q134.57 18.52 134.26 17.18Q133.95 15.84 133.66 14.45Q133.37 13.05 133.06 11.84L133.06 11.84L133.97 11.84Q133.68 13.05 133.38 14.45Q133.08 15.84 132.77 17.19Q132.47 18.54 132.16 19.63L132.16 19.63L130.04 27ZM159.72 27.34L159.72 27.34Q156.15 27.34 153.46 25.76Q150.77 24.18 149.25 21.25Q147.74 18.32 147.74 14.30L147.74 14.30Q147.74 10.17 149.31 7.24Q150.89 4.30 153.57 2.75Q156.25 1.19 159.60 1.19L159.60 1.19Q161.76 1.19 163.61 1.82Q165.46 2.44 166.91 3.59Q168.35 4.73 169.27 6.30Q170.18 7.86 170.45 9.74L170.45 9.74L165.16 9.74Q164.88 8.83 164.40 8.11Q163.91 7.38 163.22 6.87Q162.52 6.36 161.64 6.09Q160.75 5.83 159.69 5.83L159.69 5.83Q157.72 5.83 156.22 6.81Q154.71 7.79 153.88 9.67Q153.04 11.55 153.04 14.25L153.04 14.25Q153.04 16.95 153.87 18.84Q154.70 20.73 156.20 21.72Q157.71 22.71 159.76 22.71L159.76 22.71Q161.60 22.71 162.92 22.04Q164.23 21.38 164.94 20.15Q165.65 18.92 165.65 17.24L165.65 17.24L166.75 17.40L160.11 17.40L160.11 13.43L170.71 13.43L170.71 16.61Q170.71 19.96 169.29 22.36Q167.87 24.76 165.40 26.05Q162.92 27.34 159.72 27.34ZM180.95 27.38L180.95 27.38Q178.02 27.38 175.90 26.18Q173.78 24.98 172.65 22.78Q171.51 20.57 171.51 17.55L171.51 17.55Q171.51 14.59 172.64 12.37Q173.77 10.15 175.84 8.90Q177.90 7.65 180.69 7.65L180.69 7.65Q182.57 7.65 184.19 8.25Q185.82 8.85 187.05 10.06Q188.28 11.26 188.97 13.07Q189.66 14.88 189.66 17.34L189.66 17.34L189.66 18.78L173.61 18.78L173.61 15.57L187.15 15.57L184.76 16.42Q184.76 14.93 184.30 13.83Q183.85 12.73 182.95 12.12Q182.06 11.52 180.72 11.52L180.72 11.52Q179.41 11.52 178.48 12.13Q177.54 12.75 177.07 13.80Q176.59 14.85 176.59 16.20L176.59 16.20L176.59 18.47Q176.59 20.13 177.14 21.26Q177.70 22.39 178.70 22.95Q179.70 23.51 181.03 23.51L181.03 23.51Q181.94 23.51 182.67 23.26Q183.41 23.00 183.93 22.50Q184.45 21.99 184.72 21.26L184.72 21.26L189.37 22.13Q188.91 23.70 187.76 24.89Q186.62 26.08 184.90 26.73Q183.18 27.38 180.95 27.38ZM196.02 15.94L196.02 15.94L196.02 27L190.89 27L190.89 7.89L195.73 7.89L195.81 12.66L195.50 12.66Q196.26 10.27 197.79 8.96Q199.31 7.65 201.74 7.65L201.74 7.65Q203.72 7.65 205.19 8.52Q206.66 9.38 207.48 11.00Q208.30 12.61 208.30 14.85L208.30 14.85L208.30 27L203.18 27L203.18 15.74Q203.18 13.96 202.26 12.95Q201.35 11.94 199.72 11.94L199.72 11.94Q198.65 11.94 197.80 12.41Q196.96 12.88 196.49 13.77Q196.02 14.66 196.02 15.94ZM215.53 27L210.40 27L210.40 7.89L215.53 7.89L215.53 27ZM212.97 5.40L212.97 5.40Q211.81 5.40 210.99 4.63Q210.16 3.86 210.16 2.77L210.16 2.77Q210.16 1.67 210.99 0.90Q211.81 0.13 212.97 0.13L212.97 0.13Q214.13 0.13 214.96 0.90Q215.79 1.66 215.79 2.77L215.79 2.77Q215.79 3.86 214.96 4.63Q214.13 5.40 212.97 5.40ZM226.24 27.38L226.24 27.38Q223.32 27.38 221.20 26.18Q219.08 24.98 217.95 22.78Q216.81 20.57 216.81 17.55L216.81 17.55Q216.81 14.59 217.94 12.37Q219.07 10.15 221.13 8.90Q223.20 7.65 225.99 7.65L225.99 7.65Q227.87 7.65 229.49 8.25Q231.11 8.85 232.35 10.06Q233.58 11.26 234.27 13.07Q234.96 14.88 234.96 17.34L234.96 17.34L234.96 18.78L218.91 18.78L218.91 15.57L232.45 15.57L230.06 16.42Q230.06 14.93 229.60 13.83Q229.15 12.73 228.25 12.12Q227.36 11.52 226.02 11.52L226.02 11.52Q224.71 11.52 223.77 12.13Q222.84 12.75 222.36 13.80Q221.89 14.85 221.89 16.20L221.89 16.20L221.89 18.47Q221.89 20.13 222.44 21.26Q223.00 22.39 224.00 22.95Q225.00 23.51 226.33 23.51L226.33 23.51Q227.24 23.51 227.97 23.26Q228.71 23.00 229.23 22.50Q229.75 21.99 230.02 21.26L230.02 21.26L234.67 22.13Q234.21 23.70 233.06 24.89Q231.92 26.08 230.20 26.73Q228.48 27.38 226.24 27.38Z"/></g>
            
          </svg>
        